<?xml version="1.0" encoding="UTF-8" standalone="no"?>
<!DOCTYPE svg PUBLIC "-//W3C//DTD SVG 1.1//EN" "http://www.w3.org/Graphics/SVG/1.1/DTD/svg11.dtd">
<svg width="100%" height="100%" viewBox="0 0 512 512" version="1.1" xmlns="http://www.w3.org/2000/svg" xmlns:xlink="http://www.w3.org/1999/xlink" xml:space="preserve" xmlns:serif="http://www.serif.com/" style="fill-rule:evenodd;clip-rule:evenodd;stroke-linejoin:round;stroke-miterlimit:2;">
    <g>
        <g transform="matrix(1.05067,0,0,1.03372,-24.2265,-15.7654)">
            <ellipse cx="266.712" cy="262.899" rx="243.654" ry="247.648" style="fill:white;"/>
            <path d="M266.712,13.316C131.185,13.316 21.155,125.151 21.155,262.899C21.155,400.648 131.185,512.482 266.712,512.482C402.239,512.482 512.27,400.648 512.27,262.899C512.27,125.151 402.239,13.316 266.712,13.316ZM266.712,15.251C401.188,15.251 510.366,126.219 510.366,262.899C510.366,399.58 401.188,510.548 266.712,510.548C132.236,510.548 23.058,399.58 23.058,262.899C23.058,126.219 132.236,15.251 266.712,15.251Z" style="fill:white;"/>
        </g>
        <g transform="matrix(1,0,0,1,-0.0650211,-0.790243)">
            <path d="M295.871,229.628C271.598,253.783 269.957,255.213 267.309,254.511C265.764,254.102 261.435,253.556 257.69,253.299C249.701,252.75 244.708,254.371 238.345,259.578C232.143,264.653 229,271.716 229,280.574C229,291.918 233.759,300.345 243.077,305.5C247.834,308.131 249.483,308.5 256.5,308.5C265.719,308.5 272.08,305.95 277.087,300.249C283.983,292.394 286.039,283.216 283.599,271.184L282.723,266.868L307.862,241.658C327.844,221.62 333,215.914 333,213.841C333,210.918 326.188,204 323.309,204C322.383,204 310.036,215.533 295.871,229.628M265.25,274.954C268.482,278.571 268.756,282.249 266.115,286.58C263.779,290.409 259.144,292.437 254.654,291.595C248.711,290.48 245.403,284.746 247.118,278.533C249.281,270.703 259.626,268.661 265.25,274.954"/>
        </g>
        <path d="M223.001,116.042C228.131,114.674 228.502,114.122 228.763,111.839C229.401,106.255 228.32,104.525 223.812,103.92C217.037,103.012 216.895,102.613 216.799,84.149C216.692,63.75 216.618,64.67 218.506,62.781C219.878,61.41 224.762,61.21 256.935,61.21C289.108,61.21 293.992,61.41 295.364,62.781C296.678,64.096 296.935,67.35 296.935,82.659C296.935,103.11 296.973,102.993 289.96,103.934C285.564,104.523 284.47,106.298 285.107,111.801C285.398,114.314 285.846,114.718 296.083,117.656C368.63,135.896 422.473,202.49 422.473,281.753C422.473,375.047 347.879,450.79 256,450.79C164.121,450.79 89.527,375.047 89.527,281.753C89.527,245.284 100.925,211.497 120.295,183.873C122.21,180.39 122.357,176.805 120.403,175.183C119.166,174.157 118.132,174.155 115.046,175.173C112.942,175.868 110.332,176.153 109.245,175.808C106.004,174.78 89.935,157.736 89.935,155.328C89.935,153.915 95.754,147.158 107.057,135.449C116.473,125.692 125.073,116.923 126.167,115.96C130.348,112.282 132.817,113.531 142.687,124.314C147.773,129.872 151.935,135.09 151.935,135.91C151.935,136.73 151.147,138.743 150.185,140.385C149.041,142.339 148.767,143.664 150.796,145.289C152.999,147.054 154.117,147.559 156.319,146.395C175.71,131.64 198.377,121.077 223.001,116.042ZM257,142.725C333.701,142.725 395.973,205.021 395.973,281.753C395.973,358.484 333.701,420.781 257,420.781C180.299,420.781 118.027,358.484 118.027,281.753C118.027,205.021 180.299,142.725 257,142.725Z"/>
    </g>
</svg>
