<svg id="svg" version="1.1" width="512" height="512" xmlns="http://www.w3.org/2000/svg"><path d="M218.571 63.571 C 216.683 65.460,216.757 64.540,216.864 84.939 C 216.960 103.403,217.102 103.802,223.877 104.710 C 228.385 105.315,229.466 107.045,228.828 112.629 C 228.516 115.356,228.048 115.613,219.500 117.742 C 207.831 120.650,195.932 124.590,189.013 127.838 C 180.244 131.954,165.695 140.378,160.492 144.350 C 154.999 148.545,154.091 148.708,150.861 146.079 C 148.547 144.197,148.535 144.099,150.250 141.175 C 151.213 139.534,152.000 137.520,152.000 136.700 C 152.000 135.880,147.838 130.662,142.752 125.104 C 132.882 114.321,130.413 113.072,126.232 116.750 C 125.138 117.713,116.538 126.482,107.122 136.239 C 95.819 147.948,90.000 154.705,90.000 156.118 C 90.000 158.526,106.069 175.570,109.310 176.598 C 110.397 176.943,113.007 176.658,115.111 175.963 C 118.197 174.945,119.231 174.947,120.468 175.973 C 122.812 177.919,122.301 181.824,119.174 185.856 C 109.871 197.851,99.838 218.890,95.218 236.095 C 89.916 255.835,89.592 258.502,89.592 282.500 C 89.592 306.032,90.037 309.903,94.704 327.000 C 102.864 356.893,121.540 387.932,142.544 406.508 C 170.529 431.258,195.161 443.004,233.560 449.910 C 241.392 451.319,270.608 451.319,278.440 449.910 C 304.726 445.183,320.695 439.566,339.999 428.258 C 368.639 411.482,390.103 388.408,405.356 358.000 C 412.420 343.918,416.294 332.607,420.600 313.500 C 423.170 302.098,423.188 264.316,420.630 252.000 C 413.104 215.759,398.534 187.788,374.500 163.441 C 352.771 141.429,329.894 128.042,299.000 119.260 C 285.989 115.562,285.488 115.320,285.172 112.591 C 284.535 107.088,285.629 105.313,290.025 104.724 C 297.038 103.783,297.000 103.900,297.000 83.449 C 297.000 68.140,296.743 64.886,295.429 63.571 C 294.057 62.200,289.173 62.000,257.000 62.000 C 224.827 62.000,219.943 62.200,218.571 63.571 M286.000 146.042 C 337.352 156.712,378.081 195.598,391.219 246.500 C 396.064 265.274,397.317 283.129,394.917 299.231 C 390.128 331.367,375.594 359.762,352.749 381.619 C 333.850 399.700,309.973 412.255,284.500 417.506 C 266.862 421.142,241.002 420.490,222.944 415.954 C 192.637 408.342,164.923 389.635,145.229 363.496 C 137.793 353.626,127.647 332.700,124.140 320.000 C 120.593 307.153,117.994 290.870,117.994 281.500 C 117.994 272.054,120.610 255.758,124.176 243.000 C 135.336 203.065,166.383 168.594,205.178 153.064 C 215.369 148.985,230.130 145.119,239.722 144.017 C 252.103 142.594,274.023 143.554,286.000 146.042 M295.871 229.628 C 271.598 253.783,269.957 255.213,267.309 254.511 C 265.764 254.102,261.435 253.556,257.690 253.299 C 249.701 252.750,244.708 254.371,238.345 259.578 C 232.143 264.653,229.000 271.716,229.000 280.574 C 229.000 291.918,233.759 300.345,243.077 305.500 C 247.834 308.131,249.483 308.500,256.500 308.500 C 265.719 308.500,272.080 305.950,277.087 300.249 C 283.983 292.394,286.039 283.216,283.599 271.184 L 282.723 266.868 307.862 241.658 C 327.844 221.620,333.000 215.914,333.000 213.841 C 333.000 210.918,326.188 204.000,323.309 204.000 C 322.383 204.000,310.036 215.533,295.871 229.628 M265.250 274.954 C 268.482 278.571,268.756 282.249,266.115 286.580 C 263.779 290.409,259.144 292.437,254.654 291.595 C 248.711 290.480,245.403 284.746,247.118 278.533 C 249.281 270.703,259.626 268.661,265.250 274.954 " stroke="none" fill="undefined" fill-rule="evenodd"/></svg>